<?xml version="1.0" encoding="UTF-8" standalone="no"?>
<svg
   xmlns:dc="http://purl.org/dc/elements/1.1/"
   xmlns:cc="http://creativecommons.org/ns#"
   xmlns:rdf="http://www.w3.org/1999/02/22-rdf-syntax-ns#"
   xmlns:svg="http://www.w3.org/2000/svg"
   xmlns="http://www.w3.org/2000/svg"
   version="1.1"
   id="Слой_1"
   x="0px"
   y="0px"
   width="354px"
   height="113px"
   viewBox="0 0 354 113"
   enable-background="new 0 0 354 113"
   xml:space="preserve"><metadata
   id="metadata262"><rdf:RDF><cc:Work
       rdf:about=""><dc:format>image/svg+xml</dc:format><dc:type
         rdf:resource="http://purl.org/dc/dcmitype/StillImage" /><dc:title>SMM-posting.ru</dc:title></cc:Work></rdf:RDF></metadata><defs
   id="defs260" />
<g
   id="Слой_2">
</g>
<title
   id="title157">SMM-posting.ru</title>
<desc
   id="desc159">Created with Sketch.</desc>
<g
   id="g171"
   transform="matrix(0.94040807,0,0,0.94040807,-21.165236,20.459169)">
	<path
   d="m 169.264,57.46 c -2.062,0 -4.063,0 -6.127,0 0,-0.146 0,-0.274 0,-0.405 0,-16.646 0,-33.291 -0.004,-49.936 0,-0.241 0.062,-0.413 0.241,-0.583 0.877,-0.829 1.741,-1.673 2.636,-2.536 0.246,0.234 0.479,0.452 0.71,0.673 0.771,0.743 1.549,1.479 2.306,2.24 0.131,0.13 0.232,0.354 0.232,0.537 0.009,7.188 0.002,14.378 0.002,21.566 -0.001,9.294 0.003,18.588 0.004,27.883 0,0.173 0,0.346 0,0.561 z"
   id="path161"
   style="fill:#2983c5" />
	<path
   d="m 159.697,10.088 c 0,0.237 0,0.371 0,0.506 0,4.534 0,9.069 0,13.604 0,10.915 0,21.829 0,32.742 0,0.585 0.062,0.551 -0.571,0.546 -1.744,-0.014 -3.487,-0.016 -5.231,0 -0.353,0.004 -0.475,-0.084 -0.475,-0.455 0.012,-12.296 0.016,-24.592 0.019,-36.888 0,-1.233 -0.008,-2.466 0.002,-3.7 0.002,-0.146 0.053,-0.333 0.149,-0.429 2.004,-1.957 4.017,-3.903 6.107,-5.926 z"
   id="path163"
   style="fill:#2983c5" />
	<path
   d="m 172.713,10.313 c 0.224,0.265 0.428,0.549 0.676,0.789 1.688,1.642 3.387,3.274 5.081,4.912 0.271,0.262 0.514,0.462 0.432,0.972 -0.123,0.79 -0.045,1.614 -0.045,2.424 0.004,7.926 0.008,15.851 0.018,23.776 0.004,4.486 0.02,8.974 0.02,13.459 0,1.007 0.035,0.824 -0.816,0.83 -1.547,0.012 -3.092,0.002 -4.638,0.004 -0.876,0 -0.874,0.002 -0.874,-0.884 0,-5.882 0,-11.764 0,-17.646 0.001,-4.059 0.002,-8.116 0.002,-12.174 0,-5.327 0,-10.653 -10e-4,-15.981 0,-0.123 0,-0.247 0,-0.37 0.044,-0.038 0.095,-0.074 0.145,-0.111 z"
   id="path165"
   style="fill:#2983c5" />
	<path
   d="m 150.202,35.551 c 0,0.22 0.001,0.362 0,0.506 -0.015,3.999 -0.035,7.999 -0.037,11.998 -0.003,4.034 0.016,8.068 0.014,12.102 0,0.157 -0.066,0.356 -0.174,0.46 -1.981,1.93 -3.976,3.848 -5.967,5.768 -0.017,0.016 -0.041,0.021 -0.116,0.053 0,-0.148 0,-0.277 0,-0.406 0,-3.838 0,-7.678 0.001,-11.514 0.002,-4.21 0,-8.422 0.014,-12.632 0,-0.177 0.081,-0.401 0.204,-0.522 1.917,-1.87 3.847,-3.728 5.774,-5.587 0.065,-0.067 0.145,-0.115 0.287,-0.226 z"
   id="path167"
   style="fill:#2983c5" />
	<path
   d="m 188.334,66.424 c -0.166,-0.154 -0.275,-0.25 -0.381,-0.35 -1.836,-1.773 -3.668,-3.555 -5.518,-5.316 -0.26,-0.248 -0.352,-0.505 -0.35,-0.851 0.021,-4.609 0.037,-9.219 0.047,-13.828 0.004,-1.545 -0.012,-3.09 -0.021,-4.635 -0.004,-0.764 -0.01,-1.529 -0.012,-2.295 -0.004,-0.741 0.004,-1.483 -0.002,-2.226 -0.002,-0.157 -0.027,-0.32 -0.066,-0.475 -0.096,-0.39 -0.102,-0.388 0.086,-0.876 0.084,0.056 0.168,0.096 0.23,0.158 1.906,1.844 3.816,3.687 5.709,5.547 0.154,0.151 0.262,0.429 0.262,0.648 0.016,7.375 0.014,14.75 0.016,22.125 0,0.762 0,1.522 0,2.374 z"
   id="path169"
   style="fill:#2983c5" />
</g>




<g
   aria-label="SMM"
   style="font-style:normal;font-variant:normal;font-weight:normal;font-stretch:normal;font-size:46.9219017px;line-height:1.25;font-family:'DIN Round Pro';-inkscape-font-specification:'DIN Round Pro';letter-spacing:0px;word-spacing:0px;fill:#ffffff;fill-opacity:1;stroke:none;stroke-width:1.17304766"
   id="text266"><path
     d="m 21.419597,60.470956 -3.988362,-0.586524 q -4.246432,-0.633445 -6.475222,-2.791853 -2.3930173,-2.322634 -2.3930173,-6.545605 0,-4.527964 3.1437673,-7.319817 3.143768,-2.815314 8.492864,-2.815314 4.058745,0 7.554427,1.618806 2.674548,1.24343 2.674548,3.261072 0,1.079204 -0.75075,2.017642 -0.774212,0.891516 -1.947259,0.891516 -0.98536,0 -2.439939,-0.750751 -2.486861,-1.313813 -5.278714,-1.313813 -2.4634,0 -3.800674,1.173048 -1.337274,1.149586 -1.337274,2.862236 0,1.665727 0.961899,2.557243 1.102664,0.98536 3.096845,1.290353 l 3.917979,0.563062 q 4.340276,0.633446 6.404839,2.604166 2.580705,2.416478 2.580705,7.061746 0,3.143768 -1.665728,5.466402 -1.642266,2.322634 -4.434119,3.495681 -2.768392,1.173048 -6.310996,1.173048 -2.674548,0 -4.504503,-0.375375 Q 13.090959,73.609089 11.120239,72.67065 9.384129,71.849517 8.5864567,71.028384 7.7887844,70.18379 7.7887844,68.846516 q 0,-1.243431 0.8915161,-2.134947 0.7272895,-0.72729 1.8299545,-0.72729 0.961899,0 2.651087,0.891517 1.829954,0.961899 3.167228,1.360735 1.360736,0.375375 3.167229,0.375375 2.862236,0 4.387198,-1.102665 1.548422,-1.102664 1.548422,-3.096845 0,-1.806493 -1.00882,-2.791853 -0.868056,-0.821134 -3.003002,-1.149587 z"
     style="font-style:normal;font-variant:normal;font-weight:bold;font-stretch:normal;font-family:'DIN Round Pro';-inkscape-font-specification:'DIN Round Pro Bold';stroke-width:1.17304766;fill:#ffffff"
     id="path4931" /><path
     d="m 54.865381,67.251171 q -0.680367,0.516141 -1.806493,0.516141 -1.126126,0 -1.829954,-0.516141 -0.680368,-0.539602 -1.313813,-1.783032 L 44.47218,54.746484 v 15.132313 q 0,1.196509 -0.09384,1.736111 -0.07038,0.539602 -0.351914,1.126125 -0.375375,0.703829 -1.149587,1.126126 -0.75075,0.422297 -1.689188,0.422297 -0.938438,0 -1.71265,-0.422297 -0.75075,-0.422297 -1.126125,-1.126126 -0.281532,-0.586523 -0.375375,-1.126125 -0.07038,-0.539602 -0.07038,-1.736111 V 44.564431 q 0,-2.181868 0.98536,-3.167228 0.891516,-0.891516 2.205329,-0.891516 1.149587,0 1.947259,0.539602 0.914977,0.586524 1.665727,2.017642 l 8.352099,15.906524 8.352098,-15.906524 q 0.750751,-1.431118 1.665728,-2.017642 0.797672,-0.539602 1.947259,-0.539602 1.313813,0 2.205329,0.891516 0.98536,0.98536 0.98536,3.167228 v 25.314366 q 0,1.196509 -0.09384,1.736111 -0.07038,0.539602 -0.351914,1.126125 -0.375375,0.703829 -1.149586,1.126126 -0.750751,0.422297 -1.689189,0.422297 -0.938438,0 -1.712649,-0.422297 -0.750751,-0.422297 -1.126126,-1.126126 -0.281531,-0.586523 -0.375375,-1.126125 -0.07038,-0.539602 -0.07038,-1.736111 V 54.746484 l -5.442941,10.721655 q -0.633445,1.24343 -1.337274,1.783032 z"
     style="font-style:normal;font-variant:normal;font-weight:bold;font-stretch:normal;font-family:'DIN Round Pro';-inkscape-font-specification:'DIN Round Pro Bold';stroke-width:1.17304766;fill:#ffffff"
     id="path4933" /><path
     d="m 92.897783,67.251171 q -0.680367,0.516141 -1.806493,0.516141 -1.126126,0 -1.829954,-0.516141 -0.680368,-0.539602 -1.313813,-1.783032 L 82.504582,54.746484 v 15.132313 q 0,1.196509 -0.09384,1.736111 -0.07038,0.539602 -0.351914,1.126125 -0.375375,0.703829 -1.149587,1.126126 -0.75075,0.422297 -1.689188,0.422297 -0.938438,0 -1.71265,-0.422297 -0.75075,-0.422297 -1.126125,-1.126126 -0.281532,-0.586523 -0.375375,-1.126125 -0.07038,-0.539602 -0.07038,-1.736111 V 44.564431 q 0,-2.181868 0.98536,-3.167228 0.891516,-0.891516 2.205329,-0.891516 1.149587,0 1.947259,0.539602 0.914977,0.586524 1.665727,2.017642 l 8.352099,15.906524 8.352098,-15.906524 q 0.750752,-1.431118 1.665732,-2.017642 0.79767,-0.539602 1.94725,-0.539602 1.31382,0 2.20533,0.891516 0.98536,0.98536 0.98536,3.167228 v 25.314366 q 0,1.196509 -0.0938,1.736111 -0.0704,0.539602 -0.35191,1.126125 -0.37538,0.703829 -1.14959,1.126126 -0.75075,0.422297 -1.68919,0.422297 -0.93844,0 -1.71265,-0.422297 -0.75075,-0.422297 -1.12612,-1.126126 -0.281535,-0.586523 -0.375379,-1.126125 -0.07038,-0.539602 -0.07038,-1.736111 V 54.746484 l -5.442941,10.721655 q -0.633445,1.24343 -1.337274,1.783032 z"
     style="font-style:normal;font-variant:normal;font-weight:bold;font-stretch:normal;font-family:'DIN Round Pro';-inkscape-font-specification:'DIN Round Pro Bold';stroke-width:1.17304766;fill:#ffffff"
     id="path4935" /></g><g
   aria-label="POSTING"
   style="font-style:normal;font-variant:normal;font-weight:normal;font-stretch:normal;font-size:46.9219017px;line-height:1.25;font-family:'DIN Round Pro';-inkscape-font-specification:'DIN Round Pro';letter-spacing:0px;word-spacing:0px;fill:#ffffff;fill-opacity:1;stroke:none;stroke-width:1.17304766"
   id="text266-3"><path
     d="m 162.74958,71.801771 q -0.28153,-0.586524 -0.37537,-1.126126 -0.0704,-0.539602 -0.0704,-1.73611 V 43.742474 q 0,-0.656907 0.0235,-1.055743 0.0469,-0.398836 0.25807,-0.98536 0.21115,-0.609985 0.63344,-1.032282 0.4223,-0.422297 1.00882,-0.633445 0.60999,-0.211149 1.00883,-0.23461 0.39883,-0.04692 1.05574,-0.04692 h 9.009 q 5.04411,0 8.02365,3.003002 3.003,3.003002 3.003,7.41366 0,4.410659 -3.003,7.413661 -2.97954,3.003001 -8.02365,3.003001 h -6.4283 v 8.352099 q 0,1.196508 -0.0938,1.73611 -0.0704,0.539602 -0.35192,1.126126 -0.37537,0.703828 -1.14958,1.126126 -0.75075,0.422297 -1.68919,0.422297 -0.93844,0 -1.71265,-0.422297 -0.75075,-0.422298 -1.12613,-1.126126 z m 6.12331,-17.03265 h 6.05293 q 2.20533,0 3.51914,-1.266892 1.31381,-1.266891 1.31381,-3.331455 0,-2.064563 -1.31381,-3.331455 -1.31381,-1.266891 -3.51914,-1.266891 h -6.05293 z"
     style="font-style:normal;font-variant:normal;font-weight:bold;font-stretch:normal;font-family:'DIN Round Pro';-inkscape-font-specification:'DIN Round Pro Bold';stroke-width:1.17304766;fill:#ffffff"
     id="path4938" /><path
     d="m 212.01318,69.924895 q -3.47222,3.519143 -8.96208,3.519143 -5.48986,0 -8.96208,-3.519143 -0.98536,-0.98536 -1.64227,-2.111486 -0.63345,-1.126125 -1.00882,-2.158407 -0.35192,-1.055743 -0.5396,-2.69801 -0.16423,-1.642266 -0.21115,-2.909157 -0.0235,-1.290353 -0.0235,-3.589526 0,-2.299173 0.0235,-3.566064 0.0469,-1.290353 0.21115,-2.932619 0.18768,-1.642267 0.5396,-2.674549 0.37537,-1.055742 1.00882,-2.181868 0.65691,-1.126126 1.64227,-2.111486 3.47222,-3.519142 8.96208,-3.519142 5.48986,0 8.96208,3.519142 0.98536,0.98536 1.61881,2.111486 0.65691,1.126126 1.00882,2.181868 0.37537,1.032282 0.5396,2.674549 0.18769,1.642266 0.21115,2.932619 0.0469,1.266891 0.0469,3.566064 0,2.299173 -0.0469,3.589526 -0.0235,1.266891 -0.21115,2.909157 -0.16423,1.642267 -0.5396,2.69801 -0.35191,1.032282 -1.00882,2.158407 -0.63345,1.126126 -1.61881,2.111486 z m -4.76257,-22.850966 q -1.54842,-1.783033 -4.19951,-1.783033 -2.65109,0 -4.19951,1.783033 -0.9619,1.079203 -1.29035,2.909158 -0.32846,1.806493 -0.32846,6.475222 0,4.668729 0.32846,6.475223 0.32845,1.806493 1.29035,2.885696 1.59534,1.806494 4.19951,1.806494 2.60417,0 4.19951,-1.806494 0.9619,-1.079203 1.29035,-2.885696 0.32846,-1.806494 0.32846,-6.475223 0,-4.668729 -0.32846,-6.475222 -0.32845,-1.829955 -1.29035,-2.909158 z"
     style="font-style:normal;font-variant:normal;font-weight:bold;font-stretch:normal;font-family:'DIN Round Pro';-inkscape-font-specification:'DIN Round Pro Bold';stroke-width:1.17304766;fill:#ffffff"
     id="path4940" /><path
     d="m 233.34065,59.531694 -3.98836,-0.586524 q -4.24643,-0.633446 -6.47522,-2.791853 -2.39302,-2.322634 -2.39302,-6.545606 0,-4.527963 3.14377,-7.319816 3.14377,-2.815314 8.49286,-2.815314 4.05875,0 7.55443,1.618805 2.67455,1.243431 2.67455,3.261072 0,1.079204 -0.75075,2.017642 -0.77421,0.891516 -1.94726,0.891516 -0.98536,0 -2.43994,-0.75075 -2.48686,-1.313813 -5.27871,-1.313813 -2.4634,0 -3.80068,1.173047 -1.33727,1.149587 -1.33727,2.862236 0,1.665728 0.9619,2.557244 1.10266,0.98536 3.09684,1.290352 l 3.91798,0.563063 q 4.34028,0.633446 6.40484,2.604166 2.58071,2.416477 2.58071,7.061746 0,3.143767 -1.66573,5.466401 -1.64227,2.322634 -4.43412,3.495682 -2.76839,1.173048 -6.311,1.173048 -2.67455,0 -4.5045,-0.375376 -1.82995,-0.398836 -3.80067,-1.337274 -1.73611,-0.821133 -2.53379,-1.642266 -0.79767,-0.844595 -0.79767,-2.181869 0,-1.24343 0.89152,-2.134946 0.72729,-0.72729 1.82995,-0.72729 0.9619,0 2.65109,0.891516 1.82995,0.961899 3.16723,1.360735 1.36073,0.375376 3.16723,0.375376 2.86223,0 4.38719,-1.102665 1.54843,-1.102665 1.54843,-3.096846 0,-1.806493 -1.00882,-2.791853 -0.86806,-0.821133 -3.00301,-1.149586 z"
     style="font-style:normal;font-variant:normal;font-weight:bold;font-stretch:normal;font-family:'DIN Round Pro';-inkscape-font-specification:'DIN Round Pro Bold';stroke-width:1.17304766;fill:#ffffff"
     id="path4942" /><path
     d="m 267.17061,45.572428 h -4.95026 v 23.367107 q 0,1.196508 -0.0938,1.73611 -0.0704,0.539602 -0.35191,1.126126 -0.37538,0.703828 -1.14959,1.126126 -0.75075,0.422297 -1.68919,0.422297 -0.93843,0 -1.71265,-0.422297 -0.75075,-0.422298 -1.12612,-1.126126 -0.28153,-0.586524 -0.37538,-1.126126 -0.0704,-0.539602 -0.0704,-1.73611 V 45.572428 h -4.95026 q -1.82995,0 -2.55724,-0.375375 -0.63345,-0.328454 -1.00882,-1.008821 -0.37538,-0.680368 -0.37538,-1.524962 0,-0.844594 0.37538,-1.524962 0.37537,-0.680367 1.00882,-1.008821 0.72729,-0.375375 2.55724,-0.375375 h 16.46959 q 1.82995,0 2.55724,0.375375 0.63345,0.328454 1.00882,1.008821 0.37538,0.680368 0.37538,1.524962 0,0.844594 -0.37538,1.524962 -0.37537,0.680367 -1.00882,1.008821 -0.72729,0.375375 -2.55724,0.375375 z"
     style="font-style:normal;font-variant:normal;font-weight:bold;font-stretch:normal;font-family:'DIN Round Pro';-inkscape-font-specification:'DIN Round Pro Bold';stroke-width:1.17304766;fill:#ffffff"
     id="path4944" /><path
     d="m 282.69516,43.977083 v 24.962452 q 0,1.196508 -0.0938,1.73611 -0.0704,0.539602 -0.35191,1.126126 -0.37537,0.703828 -1.14959,1.126126 -0.75075,0.422297 -1.68918,0.422297 -0.93844,0 -1.71265,-0.422297 -0.75075,-0.422298 -1.12613,-1.126126 -0.28153,-0.586524 -0.37537,-1.126126 -0.0704,-0.539602 -0.0704,-1.73611 V 43.977083 q 0,-1.196508 0.0704,-1.73611 0.0938,-0.539602 0.37537,-1.126126 0.37538,-0.703828 1.12613,-1.126125 0.77421,-0.422298 1.71265,-0.422298 0.93843,0 1.68918,0.422298 0.77422,0.422297 1.14959,1.126125 0.28153,0.586524 0.35191,1.126126 0.0938,0.539602 0.0938,1.73611 z"
     style="font-style:normal;font-variant:normal;font-weight:bold;font-stretch:normal;font-family:'DIN Round Pro';-inkscape-font-specification:'DIN Round Pro Bold';stroke-width:1.17304766;fill:#ffffff"
     id="path4946" /><path
     d="m 316.06544,43.977083 v 25.290905 q 0,2.181869 -0.89152,3.073385 -1.00882,1.008821 -2.4634,1.008821 -1.0792,0 -1.90034,-0.680368 -0.82113,-0.680367 -1.9238,-2.322634 l -11.8947,-17.548791 v 16.141134 q 0,1.196508 -0.0938,1.73611 -0.0704,0.539602 -0.35192,1.126126 -0.37537,0.703828 -1.14958,1.126126 -0.75075,0.422297 -1.68919,0.422297 -0.93844,0 -1.71265,-0.422297 -0.75075,-0.422298 -1.12613,-1.126126 -0.28153,-0.586524 -0.37537,-1.126126 -0.0704,-0.539602 -0.0704,-1.73611 V 43.64863 q 0,-2.158408 0.89151,-3.073385 1.00882,-1.008821 2.4634,-1.008821 1.07921,0 1.90034,0.680368 0.82113,0.680368 1.94726,2.322634 l 11.87124,17.548791 V 43.977083 q 0,-1.196508 0.0704,-1.73611 0.0938,-0.539602 0.37538,-1.126126 0.37537,-0.703828 1.12612,-1.126125 0.77421,-0.422298 1.71265,-0.422298 0.93844,0 1.68919,0.422298 0.77421,0.422297 1.14959,1.126125 0.28153,0.586524 0.35191,1.126126 0.0939,0.539602 0.0939,1.73611 z"
     style="font-style:normal;font-variant:normal;font-weight:bold;font-stretch:normal;font-family:'DIN Round Pro';-inkscape-font-specification:'DIN Round Pro Bold';stroke-width:1.17304766;fill:#ffffff"
     id="path4948" /><path
     d="m 329.20063,56.458309 q 0,4.668729 0.32846,6.498683 0.32845,1.806494 1.29035,2.885697 1.54842,1.783033 4.19951,1.783033 2.53378,0 4.15259,-1.689189 0.86805,-0.891516 1.17304,-2.017642 0.32846,-1.126125 0.32846,-2.932618 h -2.3461 q -1.75957,0 -2.55724,-0.398837 -0.60999,-0.304992 -1.00882,-0.985359 -0.37538,-0.680368 -0.37538,-1.524962 0,-0.844595 0.37538,-1.524962 0.37537,-0.680368 1.00882,-1.008821 0.75075,-0.375375 2.55724,-0.375375 h 4.57489 q 0.6569,0 1.05574,0.04692 0.39884,0.02346 0.98536,0.234609 0.60998,0.211149 1.03228,0.633446 0.4223,0.422297 0.63345,1.032282 0.21115,0.586523 0.23461,0.98536 0.0469,0.398836 0.0469,1.055742 v 0.351915 q 0,3.777213 -0.65691,6.17023 -0.6569,2.393017 -2.43994,4.176049 -1.90033,1.900337 -3.98836,2.744931 -2.06456,0.844595 -4.78603,0.844595 -5.48986,0 -8.96209,-3.519143 -0.98536,-0.98536 -1.64226,-2.111486 -0.63345,-1.126125 -1.00882,-2.158407 -0.35192,-1.055743 -0.5396,-2.69801 -0.16423,-1.642266 -0.21115,-2.909157 -0.0235,-1.290353 -0.0235,-3.589526 0,-2.299173 0.0235,-3.566064 0.0469,-1.290353 0.21115,-2.932619 0.18768,-1.642267 0.5396,-2.674549 0.37537,-1.055742 1.00882,-2.181868 0.6569,-1.126126 1.64226,-2.111486 3.47223,-3.519142 8.8917,-3.519142 2.93262,0 4.95027,0.727289 2.01764,0.72729 3.61298,2.275712 1.47804,1.431118 2.15841,3.003002 0.70383,1.571884 0.70383,2.768392 0,1.618806 -0.86806,2.486861 -0.89151,0.891516 -2.27571,0.891516 -1.14959,0 -1.87688,-0.563063 -0.84459,-0.680367 -1.6188,-2.322634 -1.54842,-3.44876 -4.9268,-3.44876 -2.36956,0 -3.9649,1.783033 -1.03228,1.173047 -1.33728,3.003001 -0.30499,1.829955 -0.30499,6.381379 z"
     style="font-style:normal;font-variant:normal;font-weight:bold;font-stretch:normal;font-family:'DIN Round Pro';-inkscape-font-specification:'DIN Round Pro Bold';stroke-width:1.17304766;fill:#ffffff"
     id="path4950" /></g></svg>
